# MagicaVoxel @ ephtracy

# material
mtllib sl_BuyScreen.mtl
usemtl palette

# normals
vn -1 0 0
vn 1 0 0
vn 0 0 1
vn 0 0 -1
vn 0 -1 0
vn 0 1 0

# texcoords
vt 0.705078 0.5
vt 0.732422 0.5
vt 0.955078 0.5

# verts
v -13.5 0 6.5
v -13.5 0 3.5
v -13.5 38 6.5
v -13.5 38 3.5
v 17.5 1 6.5
v 17.5 1 5.5
v 17.5 1 4.5
v 17.5 1 3.5
v 17.5 37 6.5
v 17.5 37 5.5
v 17.5 37 4.5
v 17.5 37 3.5
v -12.5 1 6.5
v -12.5 1 5.5
v -12.5 1 4.5
v -12.5 1 3.5
v -12.5 37 6.5
v -12.5 37 5.5
v -12.5 37 4.5
v -12.5 37 3.5
v 18.5 0 6.5
v 18.5 0 3.5
v 18.5 38 6.5
v 18.5 38 3.5
v -13.5 0 6.5
v -13.5 38 6.5
v -12.5 1 6.5
v -12.5 37 6.5
v 17.5 1 6.5
v 17.5 37 6.5
v 18.5 0 6.5
v 18.5 38 6.5
v -12.5 1 5.5
v -12.5 37 5.5
v -11.5 2 5.5
v -11.5 36 5.5
v 16.5 2 5.5
v 16.5 36 5.5
v 17.5 1 5.5
v 17.5 37 5.5
v -12.5 1 4.5
v -12.5 37 4.5
v -11.5 2 4.5
v -11.5 36 4.5
v 16.5 2 4.5
v 16.5 36 4.5
v 17.5 1 4.5
v 17.5 37 4.5
v -13.5 0 3.5
v -13.5 38 3.5
v -12.5 1 3.5
v -12.5 37 3.5
v 17.5 1 3.5
v 17.5 37 3.5
v 18.5 0 3.5
v 18.5 38 3.5
v -13.5 0 6.5
v 18.5 0 6.5
v -13.5 0 3.5
v 18.5 0 3.5
v -12.5 37 6.5
v 17.5 37 6.5
v -12.5 37 5.5
v 17.5 37 5.5
v -12.5 37 4.5
v 17.5 37 4.5
v -12.5 37 3.5
v 17.5 37 3.5
v -12.5 1 6.5
v 17.5 1 6.5
v -12.5 1 5.5
v 17.5 1 5.5
v -12.5 1 4.5
v 17.5 1 4.5
v -12.5 1 3.5
v 17.5 1 3.5
v -13.5 38 6.5
v 18.5 38 6.5
v -13.5 38 3.5
v 18.5 38 3.5

# faces
f 3/3/1 2/3/1 1/3/1
f 4/3/1 2/3/1 3/3/1
f 9/3/1 6/3/1 5/3/1
f 10/3/1 6/3/1 9/3/1
f 11/3/1 8/3/1 7/3/1
f 12/3/1 8/3/1 11/3/1
f 13/3/2 14/3/2 17/3/2
f 17/3/2 14/3/2 18/3/2
f 15/3/2 16/3/2 19/3/2
f 19/3/2 16/3/2 20/3/2
f 21/3/2 22/3/2 23/3/2
f 23/3/2 22/3/2 24/3/2
f 27/3/3 26/3/3 25/3/3
f 28/3/3 26/3/3 27/3/3
f 29/3/3 27/3/3 25/3/3
f 30/3/3 26/3/3 28/3/3
f 31/3/3 29/3/3 25/3/3
f 31/3/3 30/3/3 29/3/3
f 32/3/3 26/3/3 30/3/3
f 32/3/3 30/3/3 31/3/3
f 35/2/3 34/2/3 33/2/3
f 36/2/3 34/2/3 35/2/3
f 37/2/3 35/2/3 33/2/3
f 37/1/3 36/1/3 35/1/3
f 38/2/3 34/2/3 36/2/3
f 38/1/3 36/1/3 37/1/3
f 39/2/3 37/2/3 33/2/3
f 39/2/3 38/2/3 37/2/3
f 40/2/3 34/2/3 38/2/3
f 40/2/3 38/2/3 39/2/3
f 41/2/4 42/2/4 43/2/4
f 43/2/4 42/2/4 44/2/4
f 41/2/4 43/2/4 45/2/4
f 43/1/4 44/1/4 45/1/4
f 44/2/4 42/2/4 46/2/4
f 45/1/4 44/1/4 46/1/4
f 41/2/4 45/2/4 47/2/4
f 45/2/4 46/2/4 47/2/4
f 46/2/4 42/2/4 48/2/4
f 47/2/4 46/2/4 48/2/4
f 49/3/4 50/3/4 51/3/4
f 51/3/4 50/3/4 52/3/4
f 49/3/4 51/3/4 53/3/4
f 52/3/4 50/3/4 54/3/4
f 49/3/4 53/3/4 55/3/4
f 53/3/4 54/3/4 55/3/4
f 54/3/4 50/3/4 56/3/4
f 55/3/4 54/3/4 56/3/4
f 59/3/5 58/3/5 57/3/5
f 60/3/5 58/3/5 59/3/5
f 63/3/5 62/3/5 61/3/5
f 64/3/5 62/3/5 63/3/5
f 67/3/5 66/3/5 65/3/5
f 68/3/5 66/3/5 67/3/5
f 69/3/6 70/3/6 71/3/6
f 71/3/6 70/3/6 72/3/6
f 73/3/6 74/3/6 75/3/6
f 75/3/6 74/3/6 76/3/6
f 77/3/6 78/3/6 79/3/6
f 79/3/6 78/3/6 80/3/6
